<svg width="420" height="420" viewBox="0 0 420 420" fill="none" xmlns="http://www.w3.org/2000/svg">
<path d="M336 203C336.048 221.478 331.731 239.707 323.4 256.2C313.522 275.965 298.336 292.588 279.544 304.21C260.752 315.831 239.095 321.991 217 322C198.522 322.048 180.293 317.731 163.8 309.4L84 336L110.6 256.2C102.269 239.707 97.9518 221.478 98 203C98.0085 180.905 104.169 159.248 115.79 140.456C127.411 121.664 144.035 106.478 163.8 96.6004C180.293 88.2694 198.522 83.9522 217 84.0004H224C253.181 85.6103 280.742 97.927 301.408 118.592C322.073 139.258 334.39 166.819 336 196V203Z" stroke="#141414" stroke-width="24.5" stroke-linecap="round" stroke-linejoin="round"/>
<path d="M275.896 179.898C273.34 146.857 242.409 138.66 215.056 138.66C190.004 138.66 156.006 147.881 156.006 178.362C156.006 209.867 188.982 210.675 216.334 212.212C237.296 212.981 245.476 220.368 244.965 226.772C244.454 233.944 233.462 239.066 216.334 239.066C200.741 239.066 186.17 235.993 185.403 223.698L153.705 223.186C155.75 255.203 183.869 265.705 215.568 265.705C244.709 265.705 275.385 254.178 278.964 229.333C281.265 194.754 248.288 190.912 219.913 188.863C203.553 187.839 188.726 186.302 188.726 178.105C188.726 168.884 201.252 165.042 215.312 165.042C222.981 165.042 242.664 166.579 245.221 180.923L275.896 179.898Z" fill="#141414"/>
</svg>
